<svg width="85" height="85" viewBox="0 0 85 85" fill="none" xmlns="http://www.w3.org/2000/svg">
<path d="M82 42.5C82 64.3152 64.3152 82 42.5 82C20.6848 82 3 64.3152 3 42.5C3 20.6848 20.6848 3 42.5 3C64.3152 3 82 20.6848 82 42.5Z" stroke="#0281EB" stroke-width="6"/>
<path d="M52 53.5C52 58.7467 47.7467 63 42.5 63C37.2533 63 33 58.7467 33 53.5C33 48.2533 37.2533 44 42.5 44C47.7467 44 52 48.2533 52 53.5Z" stroke="#0281EB" stroke-width="6"/>
<rect x="20" y="19" width="6" height="47" rx="3" fill="#0281EB"/>
<rect x="60" y="19" width="6" height="47" rx="3" fill="#0281EB"/>
</svg>
