<svg width="120" height="120" viewBox="0 0 120 120" fill="none" xmlns="http://www.w3.org/2000/svg">
<path d="M75 78.5C75 86.5081 68.5081 93 60.5 93C52.4919 93 46 86.5081 46 78.5C46 70.4919 52.4919 64 60.5 64C68.5081 64 75 70.4919 75 78.5Z" stroke="#0281EB" stroke-width="6"/>
<rect x="27.5" y="24" width="8.47822" height="72" rx="4" fill="#0281EB"/>
<rect x="84.0215" y="24" width="8.47822" height="72" rx="4" fill="#0281EB"/>
<path d="M117 60C117 91.4802 91.4802 117 60 117C28.5198 117 3 91.4802 3 60C3 28.5198 28.5198 3 60 3C91.4802 3 117 28.5198 117 60Z" stroke="#0281EB" stroke-width="6"/>
</svg>
