<svg width="93" height="93" viewBox="0 0 93 93" fill="none" xmlns="http://www.w3.org/2000/svg">
<path d="M46.5 89C69.9721 89 89 69.9721 89 46.5C89 23.0279 69.9721 4 46.5 4C23.0279 4 4 23.0279 4 46.5C4 69.9721 23.0279 89 46.5 89Z" stroke="#0281EB" stroke-width="7"/>
<path d="M26 72.4189L26 23.0003" stroke="#0281EB" stroke-width="7" stroke-linecap="round"/>
<path d="M66 72.4189L66 23.0003" stroke="#0281EB" stroke-width="7" stroke-linecap="round"/>
<path d="M56.5 59.9912C56.5 65.7902 51.799 70.4912 46 70.4912C40.201 70.4912 35.5 65.7902 35.5 59.9912C35.5 54.1922 40.201 49.4912 46 49.4912C51.799 49.4912 56.5 54.1922 56.5 59.9912Z" stroke="#0281EB" stroke-width="7"/>
</svg>
