<svg width="93" height="93" viewBox="0 0 93 93" fill="none" xmlns="http://www.w3.org/2000/svg">
<path d="M46.5 89C69.9721 89 89 69.9721 89 46.5C89 23.0279 69.9721 4 46.5 4C23.0279 4 4 23.0279 4 46.5C4 69.9721 23.0279 89 46.5 89Z" stroke="#0281EB" stroke-width="5"/>
<path d="M26 72.4189L26 23.0003" stroke="#0281EB" stroke-width="5" stroke-linecap="round"/>
<path d="M66 72.4189L66 23.0003" stroke="#0281EB" stroke-width="5" stroke-linecap="round"/>
<path d="M57.5 59.9912C57.5 66.3425 52.3513 71.4912 46 71.4912C39.6487 71.4912 34.5 66.3425 34.5 59.9912C34.5 53.6399 39.6487 48.4912 46 48.4912C52.3513 48.4912 57.5 53.6399 57.5 59.9912Z" stroke="#0281EB" stroke-width="5"/>
</svg>
