<svg viewBox="0 0 463 174" fill="none" xmlns="http://www.w3.org/2000/svg">
  <path
    d="M233.395 163.364V164.358H229.438V163.364H233.395ZM230.591 161.534H231.764V168.812C231.764 169.144 231.812 169.393 231.908 169.558C232.008 169.721 232.134 169.83 232.286 169.886C232.442 169.939 232.606 169.966 232.778 169.966C232.908 169.966 233.014 169.959 233.097 169.946C233.179 169.929 233.246 169.916 233.295 169.906L233.534 170.96C233.455 170.99 233.344 171.02 233.201 171.05C233.058 171.083 232.878 171.099 232.659 171.099C232.328 171.099 232.003 171.028 231.685 170.886C231.37 170.743 231.108 170.526 230.899 170.234C230.694 169.943 230.591 169.575 230.591 169.131V161.534ZM235.16 171V163.364H236.333V171H235.16ZM235.756 162.091C235.528 162.091 235.33 162.013 235.165 161.857C235.002 161.701 234.921 161.514 234.921 161.295C234.921 161.077 235.002 160.889 235.165 160.734C235.33 160.578 235.528 160.5 235.756 160.5C235.985 160.5 236.181 160.578 236.343 160.734C236.509 160.889 236.592 161.077 236.592 161.295C236.592 161.514 236.509 161.701 236.343 161.857C236.181 162.013 235.985 162.091 235.756 162.091ZM238.482 171V163.364H239.616V164.557H239.715C239.874 164.149 240.131 163.833 240.486 163.607C240.84 163.379 241.266 163.264 241.763 163.264C242.267 163.264 242.686 163.379 243.021 163.607C243.359 163.833 243.623 164.149 243.812 164.557H243.891C244.087 164.162 244.38 163.849 244.771 163.617C245.162 163.382 245.631 163.264 246.178 163.264C246.861 163.264 247.419 163.478 247.854 163.906C248.288 164.33 248.505 164.991 248.505 165.889V171H247.331V165.889C247.331 165.326 247.177 164.923 246.869 164.681C246.561 164.439 246.198 164.318 245.78 164.318C245.243 164.318 244.827 164.481 244.532 164.805C244.238 165.127 244.09 165.535 244.09 166.028V171H242.897V165.77C242.897 165.336 242.756 164.986 242.474 164.721C242.193 164.452 241.83 164.318 241.385 164.318C241.081 164.318 240.796 164.399 240.53 164.562C240.269 164.724 240.056 164.95 239.894 165.238C239.735 165.523 239.655 165.853 239.655 166.227V171H238.482ZM253.852 171.159C253.116 171.159 252.481 170.997 251.948 170.672C251.417 170.344 251.008 169.886 250.72 169.3C250.435 168.71 250.292 168.024 250.292 167.241C250.292 166.459 250.435 165.77 250.72 165.173C251.008 164.573 251.409 164.106 251.923 163.771C252.44 163.433 253.043 163.264 253.732 163.264C254.13 163.264 254.523 163.33 254.911 163.463C255.298 163.596 255.651 163.811 255.97 164.109C256.288 164.404 256.541 164.795 256.73 165.283C256.919 165.77 257.014 166.37 257.014 167.082V167.58H251.127V166.565H255.82C255.82 166.134 255.734 165.75 255.562 165.412C255.393 165.074 255.151 164.807 254.836 164.612C254.525 164.416 254.157 164.318 253.732 164.318C253.265 164.318 252.861 164.434 252.519 164.666C252.181 164.895 251.921 165.193 251.739 165.561C251.557 165.929 251.465 166.323 251.465 166.744V167.42C251.465 167.997 251.565 168.486 251.764 168.887C251.966 169.285 252.246 169.588 252.604 169.797C252.962 170.002 253.378 170.105 253.852 170.105C254.16 170.105 254.438 170.062 254.687 169.976C254.939 169.886 255.156 169.754 255.338 169.578C255.521 169.399 255.661 169.177 255.761 168.912L256.894 169.23C256.775 169.615 256.575 169.953 256.293 170.244C256.011 170.533 255.663 170.758 255.249 170.92C254.834 171.08 254.369 171.159 253.852 171.159Z"
    fill="#DADADA" />
  <path
    d="M16.8636 90.9261L6.36364 90.9261L6.36364 89.7926L7.5767 89.7926L7.5767 89.6534C7.44413 89.5672 7.27509 89.4479 7.0696 89.2955C6.8608 89.1397 6.67519 88.9176 6.51278 88.6293C6.34706 88.3376 6.2642 87.9432 6.2642 87.446C6.2642 86.803 6.42495 86.2363 6.74645 85.7457C7.06794 85.2552 7.52367 84.8724 8.11364 84.5973C8.7036 84.3222 9.39962 84.1847 10.2017 84.1847C11.0104 84.1847 11.7114 84.3222 12.3047 84.5973C12.8946 84.8724 13.352 85.2536 13.6768 85.7408C13.9983 86.228 14.1591 86.7898 14.1591 87.4261C14.1591 87.9167 14.0779 88.3094 13.9155 88.6044C13.7498 88.8994 13.5625 89.1264 13.3537 89.2855C13.1416 89.4446 12.9659 89.5672 12.8267 89.6534L12.8267 89.7528L16.8636 89.7528L16.8636 90.9261ZM10.1818 89.7727C10.7585 89.7727 11.2673 89.6882 11.7081 89.5192C12.1456 89.3501 12.4886 89.1032 12.7372 88.7784C12.9825 88.4536 13.1051 88.0559 13.1051 87.5852C13.1051 87.0947 12.9759 86.6854 12.7173 86.3572C12.4555 86.0258 12.1042 85.7772 11.6634 85.6115C11.2192 85.4425 10.7254 85.358 10.1818 85.358C9.64489 85.358 9.16098 85.4408 8.73011 85.6065C8.29593 85.7689 7.95289 86.0159 7.70099 86.3473C7.44579 86.6754 7.31818 87.0881 7.31818 87.5852C7.31818 88.0625 7.43916 88.4635 7.68111 88.7884C7.91974 89.1132 8.2545 89.3584 8.68537 89.5241C9.11293 89.6899 9.61174 89.7727 10.1818 89.7727ZM14 82.3949L6.36364 82.3949L6.36364 81.2614L7.51704 81.2614L7.51704 81.1818C7.1392 81.0426 6.83262 80.7907 6.5973 80.4261C6.36198 80.0616 6.24432 79.6506 6.24432 79.1932C6.24432 79.107 6.24597 78.9993 6.24929 78.87C6.2526 78.7408 6.25758 78.643 6.2642 78.5767L7.45739 78.5767C7.44744 78.6165 7.43253 78.7076 7.41264 78.8501C7.38944 78.9893 7.37784 79.1368 7.37784 79.2926C7.37784 79.6638 7.45573 79.9953 7.61151 80.2869C7.76397 80.5753 7.97609 80.804 8.24787 80.973C8.51633 81.1387 8.82292 81.2216 9.16761 81.2216L14 81.2216L14 82.3949ZM14 77.1859L6.36364 77.1859L6.36364 76.0126L14 76.0126L14 77.1859ZM5.09091 76.5893C5.09091 76.818 5.01302 77.0152 4.85724 77.1809C4.70147 77.3433 4.5142 77.4245 4.29545 77.4245C4.0767 77.4245 3.88944 77.3433 3.73366 77.1809C3.57789 77.0152 3.5 76.818 3.5 76.5893C3.5 76.3606 3.57789 76.1651 3.73366 76.0027C3.88944 75.8369 4.0767 75.7541 4.29545 75.7541C4.5142 75.7541 4.70147 75.8369 4.85724 76.0027C5.01302 76.1651 5.09091 76.3606 5.09091 76.5893ZM14.1591 70.7614C14.1591 71.4773 13.9901 72.0937 13.652 72.6108C13.3139 73.1278 12.8482 73.5256 12.255 73.804C11.6617 74.0824 10.9839 74.2216 10.2216 74.2216C9.44602 74.2216 8.7616 74.0791 8.16832 73.794C7.57173 73.5057 7.10606 73.1046 6.77131 72.5909C6.43324 72.0739 6.2642 71.4706 6.2642 70.7812C6.2642 70.2443 6.36364 69.7604 6.5625 69.3295C6.76136 68.8987 7.03977 68.5457 7.39773 68.2706C7.75568 67.9955 8.17329 67.8248 8.65057 67.7585L8.65057 68.9318C8.30256 69.0213 7.99432 69.2202 7.72585 69.5284C7.45407 69.8333 7.31818 70.2443 7.31818 70.7614C7.31818 71.2187 7.4375 71.6198 7.67614 71.9645C7.91146 72.3059 8.24455 72.5727 8.67543 72.7649C9.10298 72.9538 9.60511 73.0483 10.1818 73.0483C10.7718 73.0483 11.2855 72.9555 11.723 72.7699C12.1605 72.581 12.5002 72.3158 12.7422 71.9744C12.9841 71.6297 13.1051 71.2254 13.1051 70.7614C13.1051 70.4564 13.0521 70.1797 12.946 69.9311C12.84 69.6825 12.6875 69.4721 12.4886 69.2997C12.2898 69.1274 12.0511 69.0047 11.7727 68.9318L11.7727 67.7585C12.2235 67.8248 12.6295 67.9889 12.9908 68.2507C13.3487 68.5092 13.6338 68.8523 13.8459 69.2798C14.0547 69.7041 14.1591 70.1979 14.1591 70.7614ZM14.1591 62.8416C14.1591 63.5774 13.9967 64.2121 13.6719 64.7457C13.3437 65.276 12.8864 65.6854 12.2997 65.9737C11.7098 66.2588 11.0237 66.4013 10.2415 66.4013C9.45928 66.4013 8.76989 66.2588 8.17329 65.9737C7.57339 65.6854 7.10606 65.2843 6.77131 64.7706C6.43324 64.2536 6.2642 63.6503 6.2642 62.9609C6.2642 62.5632 6.33049 62.1705 6.46307 61.7827C6.59564 61.3949 6.81108 61.0419 7.10937 60.7237C7.40435 60.4055 7.79545 60.152 8.28267 59.9631C8.76988 59.7741 9.36979 59.6797 10.0824 59.6797L10.5795 59.6797L10.5795 65.5661L9.56534 65.5661L9.56534 60.8729C9.13447 60.8729 8.75 60.959 8.41193 61.1314C8.07386 61.3004 7.80705 61.5424 7.6115 61.8572C7.41595 62.1688 7.31818 62.5367 7.31818 62.9609C7.31818 63.4283 7.43418 63.8326 7.66619 64.174C7.89489 64.5121 8.19318 64.7723 8.56108 64.9545C8.92898 65.1368 9.32339 65.228 9.74432 65.228L10.4205 65.228C10.9972 65.228 11.486 65.1286 11.8871 64.9297C12.2848 64.7275 12.5881 64.4474 12.7969 64.0895C13.0024 63.7315 13.1051 63.3156 13.1051 62.8416C13.1051 62.5334 13.062 62.255 12.9759 62.0064C12.8864 61.7545 12.7538 61.5374 12.5781 61.3551C12.3991 61.1728 12.1771 61.032 11.9119 60.9325L12.2301 59.799C12.6146 59.9183 12.9527 60.1188 13.2443 60.4006C13.5327 60.6823 13.758 61.0303 13.9205 61.4446C14.0795 61.8589 14.1591 62.3246 14.1591 62.8416Z"
    fill="#DADADA" />
  <path
    d="M27 87.9416C27 87.9416 106.482 16.0033 191.896 20.999C239.945 23.8094 253.456 57.9223 268.542 87.9416C269.397 89.643 270.257 91.3313 271.129 93C282.218 114.226 295.189 132.281 323.575 133.902C352.482 135.553 380.783 116.241 404.046 93C405.716 91.332 407.359 89.6438 408.976 87.9416C439.363 55.9354 460 19.0007 460 19.0007"
    stroke="white" stroke-width="4" stroke-linecap="round" />
  <path
    d="M271.129 93C282.218 114.226 295.189 132.281 323.575 133.902C352.482 135.553 380.783 116.241 404.046 93"
    stroke="#242222" stroke-width="4" fill="#242222" fill-opacity="0.5" stroke-linecap="round" />
  <path d="M28 3L28 147" stroke="#0A4E91" stroke-width="6" stroke-linecap="round" />
  <path d="M460 147L28 147" stroke="#0A4E91" stroke-width="6" stroke-linecap="round" />
  <path d="M460 93L410 93M28 93L244 93L268 93M404 93L271.5 93" stroke="#0281EB" stroke-opacity="0.4"
    stroke-width="3" stroke-linecap="round" stroke-dasharray="6 6" />
  <path d="M404 93L271.5 93" stroke="white" stroke-width="3" stroke-linecap="round"
    stroke-dasharray="6 6" />
</svg>